<svg width="96" height="96" viewBox="0 0 96 96" version="1.1" xmlns="http://www.w3.org/2000/svg" xmlns:xlink="http://www.w3.org/1999/xlink">
<title> 20%</title>
<desc>Created using Figma</desc>
<g id="Canvas" transform="translate(-19094 -308)">
<g id="Progress / Home / 20%">
<g id="&#216;&#167;&#217;&#138;&#217;&#130;&#217;&#136;&#217;&#134; &#216;&#167;&#217;&#132;&#216;&#170;&#217;&#133;&#217;&#136;&#217;&#138;&#217;&#132;">
<g id="Rectangle 2" opacity="0.6">
<use xlink:href="#path0_fill" transform="translate(19102 386)" fill="#54D0DD"/>
</g>
<g id="Shape">
<use xlink:href="#path1_fill" transform="translate(19094 308)" fill="#54D0DD"/>
</g>
<mask id="mask0_outline" mask-type="alpha">
<g id="Shape">
<use xlink:href="#path1_fill" transform="translate(19094 308)" fill="#FFFFFF"/>
</g>
</mask>
</g>
</g>
</g>
<defs>
<path id="path0_fill" fill-rule="evenodd" d="M 0 0L 79 0L 79 13L 0 13L 0 0Z"/>
<path id="path1_fill" fill-rule="evenodd" d="M 79.9995 30.8965L 95.2183 46.1146C 96.2612 47.1567 96.2593 48.8441 95.2183 49.8852C 94.1772 50.9262 92.4878 50.9262 91.4468 49.8852L 87.9995 46.4377L 87.9995 93.3334C 87.9995 94.8064 86.8062 96 85.3335 96L 10.6655 96C 9.19287 96 7.99951 94.8064 7.99951 93.3334L 7.99951 46.4377L 4.55225 49.8852C 3.51123 50.9273 1.82178 50.9273 0.780762 49.8852C -0.260254 48.8441 -0.260254 47.1556 0.780762 46.1146L 46.1147 0.781586C 47.1558 -0.260529 48.8452 -0.260529 49.8862 0.781586L 63.9995 14.8967L 63.9995 8.00073C 63.9995 6.52768 65.1929 5.33408 66.6655 5.33408L 77.3335 5.33408C 78.8062 5.33408 79.9995 6.52768 79.9995 8.00073L 79.9995 30.8965ZM 73.9995 11L 68.9995 11L 68.9995 20.6294L 73.9995 26L 73.9995 11ZM 57.9995 53L 57.9995 90L 36.9995 90L 36.9995 53L 57.9995 53ZM 63.4233 90L 81.9995 90L 81.9995 40.5723L 47.4995 6L 12.9995 40.5723L 12.9995 90L 31.5757 90L 31.5757 50.1089C 31.5757 48.6399 32.7651 47.4495 34.23 47.4495L 60.769 47.4495C 62.2339 47.4495 63.4233 48.6399 63.4233 50.1089L 63.4233 90Z"/>
</defs>
</svg>
