<svg width="70" height="44" viewBox="0 0 70 44" version="1.1" xmlns="http://www.w3.org/2000/svg" xmlns:xlink="http://www.w3.org/1999/xlink">
<title> Credit</title>
<desc>Created using Figma</desc>
<g id="Canvas" transform="translate(-2307 -411)">
<g id="Icons / Credit">
<g id="Shape">
<use xlink:href="#path0_fill" transform="translate(2307.72 411.194)"/>
</g>
<mask id="mask0_outline" mask-type="alpha">
<g id="Shape">
<use xlink:href="#path0_fill" transform="translate(2307.72 411.194)" fill="#FFFFFF"/>
</g>
</mask>
<g id="Colors / Gradients / Primary 3" mask="url(#mask0_outline)">
<g id="Rectangle">
<use xlink:href="#path1_fill" transform="translate(2285 382)" fill="url(#paint2_linear)"/>
</g>
</g>
</g>
</g>
<defs>
<linearGradient id="paint2_linear" x1="0" y1="0" x2="1" y2="0" gradientUnits="userSpaceOnUse" gradientTransform="matrix(114 0 0 102 0 51)">
<stop offset="0" stop-color="#49DD87"/>
<stop offset="1" stop-color="#4EDB7B"/>
</linearGradient>
<path id="path0_fill" fill-rule="evenodd" d="M 63.7319 0L 8.7251 0C 6.35376 0 4.38037 1.71655 3.97046 3.97055C 1.71582 4.38043 0 6.35367 0 8.7251L 0 38.2254C 0 40.8932 2.16992 43.0632 4.83691 43.0632L 59.8438 43.0632C 62.2144 43.0632 64.1885 41.3474 64.5984 39.0927C 66.8523 38.6828 68.5688 36.7088 68.5688 34.3373L 68.5688 4.83701C 68.5688 2.17001 66.3989 0 63.7319 0ZM 4.83618 5.83334L 59.843 5.83334C 61.4382 5.83334 62.7356 7.13068 62.7356 8.72589L 62.7356 10.8469L 1.9436 10.8469L 1.9436 8.72589C 1.9436 7.13068 3.2417 5.83334 4.83618 5.83334ZM 62.7356 15.3627L 62.7356 12.7906L 1.9436 12.7906L 1.9436 15.3627L 62.7356 15.3627ZM 59.843 41.1188L 4.83618 41.1188C 3.2417 41.1188 1.9436 39.8206 1.9436 38.2254L 1.9436 17.3071L 62.7356 17.3071L 62.7356 38.2254C 62.7356 39.8206 61.4382 41.1188 59.843 41.1188ZM 64.6799 37.0573C 65.8076 36.6621 66.6243 35.5981 66.6243 34.3366L 66.6243 4.83701C 66.6243 3.24179 65.3269 1.94446 63.7317 1.94446L 8.7251 1.94446C 7.46338 1.94446 6.39941 2.76114 6.00513 3.88892L 59.843 3.88892C 62.51 3.88892 64.6799 6.0589 64.6799 8.72589L 64.6799 37.0573ZM 5.85205 24.6882L 15.6638 24.6882L 15.6638 26.6327L 5.85205 26.6327L 5.85205 24.6882ZM 29.8489 24.6882L 20.0371 24.6882L 20.0371 26.6327L 29.8489 26.6327L 29.8489 24.6882ZM 34.2214 24.6882L 44.0332 24.6882L 44.0332 26.6327L 34.2214 26.6327L 34.2214 24.6882ZM 58.2173 24.6882L 48.4072 24.6882L 48.4072 26.6327L 58.2173 26.6327L 58.2173 24.6882ZM 54.3113 30.499C 53.3975 30.499 52.5125 30.765 51.7478 31.2597C 50.9849 30.765 50.0981 30.499 49.1843 30.499C 46.5625 30.499 44.429 32.6324 44.429 35.2551C 44.429 37.8778 46.5625 40.0112 49.1843 40.0112C 50.0981 40.0112 50.9841 39.7452 51.7478 39.2505C 52.5117 39.7452 53.3975 40.0112 54.3113 40.0112C 56.9341 40.0112 59.0676 37.8778 59.0676 35.2551C 59.0676 32.6324 56.9341 30.499 54.3113 30.499ZM 52.4092 37.31C 52.9355 37.7977 53.6116 38.0668 54.3115 38.0668C 55.8616 38.0668 57.1233 36.8052 57.1233 35.2551C 57.1233 33.705 55.8616 32.4435 54.3115 32.4435C 53.6116 32.4435 52.9365 32.7126 52.4092 33.2002L 51.748 33.8123L 51.0869 33.2002C 50.561 32.7126 49.8845 32.4435 49.1843 32.4435C 47.6343 32.4435 46.3735 33.705 46.3735 35.2551C 46.3735 36.8052 47.6343 38.0668 49.1843 38.0668C 49.8845 38.0668 50.5603 37.7977 51.0869 37.31L 51.748 36.6979L 52.4092 37.31ZM 4.87988 38.1803L 19.7634 38.1803L 19.7634 32.2871L 4.87988 32.2871L 4.87988 38.1803ZM 17.8188 34.2316L 6.82422 34.2316L 6.82422 36.2359L 17.8188 36.2359L 17.8188 34.2316Z"/>
<path id="path1_fill" fill-rule="evenodd" d="M 0 0L 114 0L 114 102L 0 102L 0 0Z"/>
</defs>
</svg>
