<svg width="70" height="63" viewBox="0 0 70 63" version="1.1" xmlns="http://www.w3.org/2000/svg" xmlns:xlink="http://www.w3.org/1999/xlink">
<title> Funding</title>
<desc>Created using Figma</desc>
<g id="Canvas" transform="translate(-2834 -397)">
<g id="Icons / Funding">
<g id="Shape">
<use xlink:href="#path0_fill" transform="matrix(-1 0 0 1 2904 397)" fill="#FFFFFF"/>
</g>
<mask id="mask0_outline" mask-type="alpha">
<g id="Shape">
<use xlink:href="#path0_fill" transform="matrix(-1 0 0 1 2904 397)" fill="#FFFFFF"/>
</g>
</mask>
<g id="Colors / White" mask="url(#mask0_outline)">
<g id="Rectangle">
<use xlink:href="#path1_fill" transform="matrix(-1 0 0 1 2904 397)" fill="#FFFFFF"/>
</g>
</g>
</g>
</g>
<defs>
<path id="path0_fill" fill-rule="evenodd" d="M 64.4736 6.11066C 64.4736 9.48068 61.3066 12.2213 57.4124 12.2213C 53.5178 12.2213 50.3508 9.48068 50.3508 6.11066C 50.3508 2.74063 53.5178 0 57.4124 0C 61.3066 0 64.4736 2.74063 64.4736 6.11066ZM 64.4023 36.2531L 64.7092 36.2531C 67.627 36.2531 70 38.3746 70 40.9832C 70 42.2473 69.4492 43.4354 68.4507 44.3282L 47.0493 60.5911C 45.5759 61.7113 43.6963 62.3288 41.7607 62.3288L 12.8333 62.3288L 1.16675 62.3288C 0.521484 62.3288 0 61.8625 0 61.2857L 0 37.2961C 0 36.7193 0.521484 36.2531 1.16675 36.2531L 12.8333 36.2531C 13.4785 36.2531 14 36.7193 14 37.2961L 14 39.0901L 14.3174 39.0192C 14.1084 37.8948 14 36.7558 14 35.6189C 14 31.1986 15.5481 26.991 18.4905 23.3759L 14.7222 20.0069C 13.5835 18.9889 13.3618 17.4682 14.1692 16.2228C 14.9788 14.9774 16.5632 14.3944 18.1184 14.7751L 21.5076 15.6022L 24.5559 9.46814C 24.9888 8.59723 25.8264 7.96515 26.8542 7.72107C 27.0701 4.44284 30.1128 1.83319 33.8333 1.83319C 37.6938 1.83319 40.8333 4.63998 40.8333 8.09134C 40.8333 9.69345 40.1194 11.1756 38.9644 12.3041L 44.968 8.12994C 45.7776 7.56671 46.8171 7.34976 47.8181 7.53436C 48.8191 7.71692 49.679 8.28015 50.176 9.08014L 53.8171 14.9399C 54.0728 15.3508 54.6094 15.5615 55.1204 15.4447L 60.0554 14.3422C 61.5742 13.9959 63.084 14.555 63.8972 15.7555C 64.7104 16.9561 64.5623 18.4069 63.5193 19.4551L 59.6516 23.3456C 62.6104 26.968 64.1667 31.1871 64.1667 35.6189C 64.1667 35.7829 64.1597 35.9531 64.1526 36.1233L 64.1467 36.2719C 64.1838 36.2705 64.2205 36.2668 64.2576 36.263L 64.2598 36.2628C 64.3069 36.2579 64.3542 36.2531 64.4023 36.2531ZM 38.6841 8.3591C 38.6841 6.10806 36.6177 4.27747 34.0767 4.27747C 31.6128 4.27747 29.5945 5.9989 29.4736 8.155C 29.4749 8.15604 29.4758 8.15704 29.4771 8.15704C 29.7212 8.25296 29.9539 8.37439 30.1716 8.52133C 30.1753 8.52371 30.1794 8.52542 30.1833 8.5271C 30.1877 8.52899 30.1921 8.53085 30.197 8.53461L 35.5498 12.2213C 37.3928 11.6693 38.6841 10.1122 38.6841 8.3591ZM 16.5347 38.5674C 16.3667 37.6153 16.2815 36.6509 16.2815 35.6916C 16.2815 31.3961 17.9307 27.3195 21.0493 23.9003C 21.3328 23.5902 21.3899 23.1619 21.1963 22.801C 21.0225 22.4743 20.6692 22.2545 20.2703 22.2161L 16.3188 18.7025C 15.7297 18.1788 16.0295 17.6095 16.1357 17.4488C 16.2407 17.287 16.6465 16.7736 17.4514 16.9686L 21.8064 18.0254C 22.3591 18.1571 22.9458 17.9144 23.1792 17.4456L 26.6338 10.5337C 26.7795 10.2402 27.064 10.0276 27.415 9.9498C 27.5679 9.91559 27.7231 9.92078 27.8748 9.9415C 27.9148 9.94693 27.9509 9.95645 27.9878 9.96613L 28.0251 9.97574C 28.1616 10.011 28.2957 10.0556 28.4111 10.1354C 28.4124 10.1365 28.4146 10.1375 28.417 10.1385L 31.033 11.9472L 35.1279 14.7784C 36.3923 15.6536 38.1604 15.6536 39.4246 14.7784L 46.3398 9.99646C 46.6138 9.80566 46.9485 9.73825 47.2903 9.7984C 47.6284 9.86063 47.9072 10.0421 48.0764 10.3107L 51.7166 16.1369C 52.4814 17.3647 54.0935 17.987 55.6235 17.6447L 60.5583 16.5475C 61.3269 16.3754 61.7327 16.8639 61.8376 17.0163C 61.9426 17.1698 62.2424 17.7122 61.7129 18.2431L 57.7358 22.2213C 57.3555 22.2721 57.0232 22.4868 56.8552 22.802C 56.6616 23.1629 56.7188 23.5912 57.0022 23.9013C 60.1187 27.3184 61.7678 31.3961 61.7678 35.6916C 61.7678 36.0909 61.7502 36.5057 61.7141 36.9475C 61.4983 37.0543 61.2976 37.1715 61.1111 37.298L 49.792 45.0396C 48.1558 46.1596 46.2148 46.9156 44.1785 47.2247L 29.3313 49.4855C 28.9746 49.5301 28.6328 49.4367 28.3633 49.2272C 28.0928 49.0178 27.9446 48.7274 27.9446 48.409C 27.9446 47.8998 28.3506 47.4529 28.9104 47.3471L 40.2913 45.1776C 42.5981 44.7389 44.2729 42.8981 44.2729 40.7991C 44.2729 38.3309 42.0139 36.3221 39.238 36.3221L 30.4592 36.3221C 27.9202 36.3221 25.3845 36.6001 22.9272 37.1476L 16.5347 38.5674ZM 11.6665 38.4972L 2.45605 38.4972L 2.45605 60.4956L 11.6665 60.4956L 11.6665 40.5923L 11.6665 38.4972ZM 66.7507 42.9733L 45.5168 59.2501C 44.4683 60.0525 43.1328 60.4956 41.7566 60.4956L 14.1228 60.4956L 14.1228 41.4104L 23.626 39.2672C 25.8894 38.7559 28.2236 38.4972 30.5613 38.4972L 39.3027 38.4972C 40.7869 38.4972 41.9946 39.5866 41.9946 40.9243C 41.9946 42.062 41.0994 43.0603 39.866 43.2991L 28.5337 45.4906C 26.9126 45.8038 25.7361 47.1164 25.7361 48.6112C 25.7361 49.5331 26.1775 50.4088 26.9473 51.0153C 27.1262 51.1557 27.3201 51.2741 27.5222 51.3778C 27.5642 51.3996 27.6084 51.4174 27.6523 51.4353L 27.655 51.4363C 27.6821 51.4472 27.7092 51.4582 27.7358 51.47C 27.8728 51.5297 28.0122 51.5852 28.1575 51.6281C 28.239 51.6526 28.3215 51.6712 28.4048 51.6899L 28.4326 51.6962C 28.5686 51.7256 28.7056 51.7486 28.845 51.7643C 28.9424 51.7748 29.0388 51.7842 29.1387 51.7874C 29.1602 51.7883 29.1812 51.7906 29.2019 51.7929C 29.2288 51.7959 29.2554 51.7989 29.2827 51.7989C 29.4512 51.7989 29.6206 51.7884 29.7915 51.7675L 44.6157 49.4775C 47.0139 49.1067 49.3018 48.2048 51.2283 46.8671L 62.499 39.0471C 62.6047 38.9738 62.7185 38.911 62.8347 38.8523C 62.9507 38.7957 63.075 38.7423 63.2122 38.6941C 63.2163 38.6926 63.2197 38.6905 63.2231 38.6884C 63.2266 38.6863 63.23 38.6842 63.2341 38.6826C 63.572 38.5653 63.9309 38.4972 64.2944 38.4972L 64.5999 38.4972C 66.2222 38.4972 67.5439 39.6893 67.5439 41.1527C 67.5439 41.8629 67.2373 42.5302 66.7507 42.9733ZM 56.7981 1.83319C 59.3379 1.83319 61.4033 3.75165 61.4033 6.11066C 61.4033 8.46967 59.3379 10.3881 56.7981 10.3881C 54.2583 10.3881 52.1929 8.46967 52.1929 6.11066C 52.1929 3.75165 54.2583 1.83319 56.7981 1.83319ZM 38.4795 28.982C 38.4795 29.5603 38.9839 30.0296 39.6052 30.0296C 40.2266 30.0296 40.731 29.5603 40.731 28.982C 40.731 28.4038 40.2266 27.9345 39.6052 27.9345C 37.7432 27.9345 36.228 26.5245 36.228 24.7918C 36.228 23.4279 37.1726 22.2757 38.4795 21.842L 38.4795 19.5541L 40.731 19.5541L 40.731 21.842C 42.0378 22.2757 42.9824 23.4279 42.9824 24.7918L 40.731 24.7918C 40.731 24.2136 40.2266 23.7443 39.6052 23.7443C 38.9839 23.7443 38.4795 24.2136 38.4795 24.7918C 38.4795 25.3701 38.9839 25.8394 39.6052 25.8394C 41.4673 25.8394 42.9824 27.2494 42.9824 28.982C 42.9824 30.3459 42.0378 31.4982 40.731 31.9319L 40.731 34.2197L 38.4795 34.2197L 38.4795 31.9319C 37.1726 31.4982 36.228 30.3459 36.228 28.982L 38.4795 28.982ZM 23.3333 22.6095L 25.7893 22.6095L 25.7893 24.4427L 23.3333 24.4427L 23.3333 22.6095ZM 30.7017 24.4427L 30.7017 22.6095L 28.2456 22.6095L 28.2456 24.4427L 30.7017 24.4427ZM 32.5439 22.6095L 35 22.6095L 35 24.4427L 32.5439 24.4427L 32.5439 22.6095ZM 46.6665 22.6095L 44.2104 22.6095L 44.2104 24.4427L 46.6665 24.4427L 46.6665 22.6095ZM 49.1228 22.6095L 51.5789 22.6095L 51.5789 24.4427L 49.1228 24.4427L 49.1228 22.6095ZM 55.8772 22.6095L 53.4211 22.6095L 53.4211 24.4427L 55.8772 24.4427L 55.8772 22.6095Z"/>
<path id="path1_fill" fill-rule="evenodd" d="M 0 0L 70 0L 70 62.3288L 0 62.3288L 0 0Z"/>
</defs>
</svg>
