<svg width="109" height="97" viewBox="0 0 109 97" version="1.1" xmlns="http://www.w3.org/2000/svg" xmlns:xlink="http://www.w3.org/1999/xlink">
<title>&#216;&#167;&#217;&#132;&#216;&#167;&#217;&#138;&#217;&#130;&#217;&#136;&#217;&#134;</title>
<desc>Created using Figma</desc>
<g id="Canvas" transform="translate(-2918 -2252)">
<g id="&#216;&#167;&#217;&#132;&#216;&#167;&#217;&#138;&#217;&#130;&#217;&#136;&#217;&#134;">
<g id="Polygon" opacity="0.1">
<use xlink:href="#path0_fill" transform="translate(2904.33 2238.33)" fill="#4FC4D1"/>
</g>
<g id="&#216;&#167;&#216;&#177;&#216;&#179;&#216;&#167;&#217;&#132;">
<g id="Shape">
<use xlink:href="#path1_fill" transform="translate(2961.47 2259)" fill="url(#paint1_linear)"/>
</g>
<g id="Shape">
<use xlink:href="#path2_fill" transform="translate(2981.22 2259)" fill="url(#paint2_linear)"/>
</g>
<g id="Shape">
<use xlink:href="#path3_fill" transform="translate(2987.5 2315)" fill="url(#paint3_linear)"/>
</g>
<g id="Shape">
<use xlink:href="#path4_fill" transform="translate(2948.13 2322.55)" fill="url(#paint4_linear)"/>
</g>
<g id="Shape">
<use xlink:href="#path5_fill" transform="translate(2956.67 2330.47)" fill="url(#paint5_linear)"/>
</g>
<g id="Shape">
<use xlink:href="#path6_fill" transform="translate(2981.08 2333.62)" fill="url(#paint6_linear)"/>
</g>
</g>
</g>
</g>
<defs>
<linearGradient id="paint1_linear" x1="0" y1="0" x2="1" y2="0" gradientUnits="userSpaceOnUse" gradientTransform="matrix(65.5341 0 0 73 0 36.5)">
<stop offset="0" stop-color="#4FC4D1"/>
<stop offset="1" stop-color="#4FC4D1"/>
</linearGradient>
<linearGradient id="paint2_linear" x1="0" y1="0" x2="1" y2="0" gradientUnits="userSpaceOnUse" gradientTransform="matrix(45.7841 0 0 54 0 27)">
<stop offset="0" stop-color="#4FC4D1"/>
<stop offset="1" stop-color="#4FC4D1"/>
</linearGradient>
<linearGradient id="paint3_linear" x1="0" y1="0" x2="1" y2="0" gradientUnits="userSpaceOnUse" gradientTransform="matrix(13.4659 0 0 17 0 8.5)">
<stop offset="0" stop-color="#4FC4D1"/>
<stop offset="1" stop-color="#4FC4D1"/>
</linearGradient>
<linearGradient id="paint4_linear" x1="0" y1="0" x2="1" y2="0" gradientUnits="userSpaceOnUse" gradientTransform="matrix(5.00333 0 0 5.55 0 2.775)">
<stop offset="0" stop-color="#4FC4D1"/>
<stop offset="1" stop-color="#4FC4D1"/>
</linearGradient>
<linearGradient id="paint5_linear" x1="0" y1="0" x2="1" y2="0" gradientUnits="userSpaceOnUse" gradientTransform="matrix(23.5289 0 0 9.62705 0 4.81353)">
<stop offset="0" stop-color="#4FC4D1"/>
<stop offset="1" stop-color="#4FC4D1"/>
</linearGradient>
<linearGradient id="paint6_linear" x1="0" y1="0" x2="1" y2="0" gradientUnits="userSpaceOnUse" gradientTransform="matrix(5.78624 0 0 4.67942 0 2.33971)">
<stop offset="0" stop-color="#4FC4D1"/>
<stop offset="1" stop-color="#4FC4D1"/>
</linearGradient>
<path id="path0_fill" fill-rule="evenodd" d="M 38.5797 23.3345C 51.467 10.4472 72.3615 10.4472 85.2488 23.3345L 100.494 38.5797C 113.381 51.467 113.381 72.3615 100.494 85.2488L 85.2488 100.494C 72.3615 113.381 51.467 113.381 38.5797 100.494L 23.3345 85.2488C 10.4472 72.3615 10.4472 51.467 23.3345 38.5797L 38.5797 23.3345Z"/>
<path id="path1_fill" fill-rule="evenodd" d="M 26.2136 72.1267C 26.4758 72.709 27 73 27.5244 73C 28.3108 73 28.835 72.4177 28.835 71.8354L 31.1943 54.6589L 53.4758 63.9751C 53.738 64.2661 54.2622 64.2661 54.5244 63.9751C 54.7866 63.9751 55.0486 63.3928 55.0486 63.1018L 65.5342 1.96509C 65.5342 1.38281 65.272 0.800537 64.7476 0.218262C 64.4856 -0.0727539 63.9612 -0.0727539 63.437 0.218262L 0.52417 40.9761C 0.262207 41.2671 0 41.8494 0 42.4316C 0 43.0139 0.52417 43.5962 0.786377 43.8875L 19.9224 50.8743L 26.2136 72.1267ZM 21.4951 48.5454L 4.4563 42.1406L 62.1262 4.58521L 52.4272 60.7727L 30.4077 51.1655C 30.1458 50.8743 29.6213 50.8743 29.3594 51.1655C 29.0972 51.4565 28.835 51.7478 28.835 52.3301L 27 65.4307L 22.2815 49.4187C 22.2815 49.1277 21.7573 48.5454 21.4951 48.5454Z"/>
<path id="path2_fill" d="M 10.3842 54C 10.1213 54 9.85837 54 9.59548 53.7089C 9.0697 53.1267 8.80681 52.2534 9.33259 51.6712L 32.7298 16.7385L 2.23456 50.5067C 1.70878 51.0889 0.920115 51.0889 0.394335 50.5067C -0.131445 49.9245 -0.131445 49.0512 0.394335 48.469L 43.5083 0.436658C 44.0341 -0.145553 44.8227 -0.145553 45.3485 0.436658C 45.8743 1.01887 45.8743 1.89218 45.6114 2.47439L 11.4357 53.4178C 11.1728 53.7089 10.9099 54 10.3842 54Z"/>
<path id="path3_fill" d="M 1.36595 17C 1.0976 17 0.829248 17 0.560898 16.715C 0.0241971 16.1451 -0.244153 15.2902 0.292547 14.7203L 11.0266 0.472142C 11.5633 -0.0977839 12.3683 -0.0977839 12.905 0.187179C 13.4417 0.757105 13.7101 1.61199 13.1734 2.18192L 2.43935 16.4301C 2.171 16.715 1.6343 17 1.36595 17Z"/>
<path id="path4_fill" d="M 3.555 5.55C 3.29167 5.55 3.02833 5.55 2.765 5.25C 1.975 4.35 1.185 3.45 0.395 2.55C -0.131667 1.95 -0.131667 1.05 0.395 0.45C 0.921667 -0.15 1.71167 -0.15 2.23833 0.45C 3.02833 1.35 3.81833 2.25 4.60833 3.15C 5.135 3.75 5.135 4.65 4.60833 5.25C 4.345 5.25 3.81833 5.55 3.555 5.55Z"/>
<path id="path5_fill" fill-rule="evenodd" d="M 4.23706 5.427C 4.23706 5.72705 4.50049 5.72705 4.76367 5.72705C 5.29053 5.72705 5.55371 5.427 6.08032 4.82715C 6.34375 3.927 6.08032 3.0271 5.55371 2.72705C 4.50049 2.12695 3.18384 1.22705 2.13037 0.327148C 1.60376 -0.272949 0.813721 0.0270996 0.287109 0.626953C -0.239502 1.22705 0.0236816 2.12695 0.550293 2.72705C 1.20898 3.17725 1.80176 3.62744 2.39453 4.07764C 2.98682 4.52734 3.5791 4.97729 4.23706 5.427ZM 14.5071 9.62695L 14.5037 9.62622C 12.9248 9.32642 11.3459 9.02661 10.0303 8.427C 9.24023 8.12695 8.97705 7.22705 9.24023 6.62695C 9.50366 6.0271 10.2937 5.427 10.8203 5.72705C 12.137 6.3269 13.4536 6.62695 14.7703 6.62695C 15.5603 6.62695 16.0869 7.5271 15.8237 8.427C 15.8237 9.0271 15.2971 9.62695 14.5071 9.62695ZM 20.8271 9.62695C 20.3005 9.62695 19.5105 9.0271 19.5105 8.427C 19.5105 7.5271 19.7739 6.927 20.5637 6.62695C 20.8271 6.62695 21.0247 6.552 21.2222 6.47705C 21.4197 6.4021 21.6172 6.32715 21.8806 6.32715C 22.6704 6.0271 23.1973 6.62695 23.4604 7.5271C 23.7239 8.427 23.1973 9.0271 22.4072 9.32715C 22.1438 9.32715 21.6172 9.32715 20.8271 9.62695Z"/>
<path id="path6_fill" d="M 1.41542 4.67942C 0.88875 4.67942 0.362083 4.37942 0.09875 3.77942C -0.164583 2.87942 0.09875 2.27942 0.88875 1.67942C 1.94208 1.07942 2.73208 0.779423 3.78542 0.179423C 4.31208 -0.120577 5.10208 -0.120577 5.62875 0.779423C 5.89208 1.37942 5.89208 2.27942 5.10208 2.87942C 4.04875 3.47942 2.99542 4.07942 1.94208 4.67942C 1.94208 4.67942 1.67875 4.67942 1.41542 4.67942Z"/>
</defs>
</svg>
