<svg width="65" height="63" viewBox="0 0 65 63" version="1.1" xmlns="http://www.w3.org/2000/svg" xmlns:xlink="http://www.w3.org/1999/xlink">
<title>&#216;&#167;&#217;&#138;&#217;&#130;&#217;&#136;&#217;&#134;</title>
<desc>Created using Figma</desc>
<g id="Canvas" transform="translate(-2860 -3217)">
<g id="&#216;&#167;&#217;&#138;&#217;&#130;&#217;&#136;&#217;&#134;">
<g id="Icons / Car Loan">
<g id="Shape">
<use xlink:href="#path0_fill" transform="translate(2860 3256.03)" fill="url(#paint0_linear)"/>
</g>
<g id="Fill 3">
<use xlink:href="#path1_fill" transform="translate(2882 3217.45)" fill="url(#paint1_linear)"/>
</g>
</g>
</g>
</g>
<defs>
<linearGradient id="paint0_linear" x1="0" y1="0" x2="1" y2="0" gradientUnits="userSpaceOnUse" gradientTransform="matrix(-65 -2.56857e-15 7.21645e-15 -23.1356 65 11.5678)">
<stop offset="0" stop-color="#4FC4D1"/>
<stop offset="1" stop-color="#4FD5E4"/>
</linearGradient>
<linearGradient id="paint1_linear" x1="0" y1="0" x2="1" y2="0" gradientUnits="userSpaceOnUse" gradientTransform="matrix(-38.0852 -4.0706e-15 4.2283e-15 -36.6647 38.0852 18.3323)">
<stop offset="0" stop-color="#4FC4D1"/>
<stop offset="1" stop-color="#4FD5E4"/>
</linearGradient>
<path id="path0_fill" fill-rule="evenodd" d="M 11.1277 0L 9.74854 0L 4.57349 0L 3.19434 0C 1.43262 0 0 1.42432 0 3.17432L 0 19.9614C 0 21.7119 1.43335 23.1355 3.19434 23.1355L 4.57349 23.1355L 9.74854 23.1355L 11.1277 23.1355C 12.8887 23.1355 14.322 21.7119 14.322 19.9614L 14.322 3.17432C 14.3215 1.42432 12.8882 0 11.1277 0ZM 54.1663 9.08545L 54.1858 9.07837L 54.2014 9.07275L 54.2041 9.07178C 60.1152 6.91919 62.5637 6.02759 63.949 7.26855C 64.8862 8.10962 65.0347 9.00049 64.9941 9.60083C 64.8772 11.3215 63.1064 12.5708 62.9043 12.7075C 50.9216 20.8176 40.7656 23.1343 33.073 23.1355C 23.2002 23.1355 17.3857 19.3191 16.9661 19.0344C 16.6899 18.8467 16.5254 18.5359 16.5254 18.2024L 16.5254 3.20898C 16.5254 2.65381 16.9773 2.20337 17.5347 2.20337C 30.199 2.20337 32.3787 3.47778 34.3018 4.60278C 35.7856 5.47119 37.0706 6.22363 44.7095 6.09351C 44.8477 6.08643 46.47 6.02563 47.6707 7.22632C 48.5244 8.08032 48.9077 9.30371 48.8113 10.8625C 48.8096 10.8909 48.804 10.9175 48.7983 10.9441C 48.7937 10.9658 48.7893 10.9875 48.7869 11.01C 50.825 10.3015 52.6211 9.64795 54.1663 9.08545ZM 61.7693 11.0437C 62.1455 10.7847 62.9414 10.0537 62.9795 9.46338C 62.9856 9.37183 63.0017 9.12695 62.5999 8.76611C 61.9834 8.38159 58.5344 9.63745 54.8799 10.9695L 54.8604 10.9766C 52.4878 11.8401 49.5388 12.9133 46.0032 14.0815C 45.9919 14.0845 45.9807 14.0867 45.9695 14.0889L 45.9436 14.094C 44.5283 14.6235 42.5989 14.8928 40.1052 14.8928C 37.9976 14.8928 35.499 14.7051 32.5908 14.3301C 32.0381 14.2593 31.6477 13.7546 31.7197 13.2031C 31.792 12.6516 32.2974 12.2629 32.8501 12.3335C 42.3379 13.5579 45.3379 12.4358 46.2827 11.6577C 46.6113 11.3875 46.7747 11.095 46.7966 10.7395C 46.8562 9.78784 46.6726 9.08765 46.2517 8.65918C 45.6799 8.07617 44.7905 8.10474 44.7761 8.10522C 36.5381 8.24438 35.0273 7.36108 33.2805 6.33936C 31.6274 5.37231 29.7583 4.28052 18.5447 4.21875L 18.5447 17.6353C 21.4045 19.2502 37.9172 27.1865 61.7693 11.0437ZM 11.1272 21.1138C 11.7656 21.1138 12.2852 20.5969 12.2852 19.9619L 12.2852 3.1748C 12.2852 2.53979 11.7656 2.02295 11.1272 2.02295L 10.7659 2.02295L 3.55493 2.02295L 3.19287 2.02295C 2.55396 2.02295 2.03442 2.53979 2.03442 3.1748L 2.03442 19.9619C 2.03442 20.5969 2.55396 21.1138 3.19287 21.1138L 3.55493 21.1138L 10.7659 21.1138L 11.1272 21.1138Z"/>
<path id="path1_fill" fill-rule="evenodd" d="M 3.38965 16.6074L 4.92896 16.6074L 33.147 16.6074L 34.6858 16.6074L 19.0381 2.23779L 3.38965 16.6074ZM 32.1943 34.769L 5.88135 34.769L 5.88135 18.5029L 32.1943 18.5029L 32.1943 34.769ZM 19.6841 0.251465L 37.6926 16.7888C 37.9304 16.9609 38.0852 17.24 38.0852 17.5549C 38.0852 18.0791 37.6587 18.5029 37.1323 18.5029L 37.123 18.5029L 34.0999 18.5029L 34.0999 35.717C 34.0999 36.2407 33.6733 36.6648 33.1467 36.6648L 4.92871 36.6648C 4.40234 36.6648 3.97583 36.2407 3.97583 35.717L 3.97583 18.5029L 0.952637 18.5029C 0.560303 18.5029 0.208252 18.2642 0.0651855 17.9001C -0.0773926 17.5371 0.0183105 17.1235 0.306641 16.8586L 18.3916 0.251465C 18.7561 -0.0837402 19.3191 -0.0837402 19.6841 0.251465ZM 15.7903 11.2307C 15.7903 9.57788 17.1345 8.23267 18.7874 8.23267C 20.4404 8.23267 21.7847 9.57788 21.7847 11.2307C 21.7847 12.8831 20.4404 14.2273 18.7874 14.2273C 17.1345 14.2273 15.7903 12.8831 15.7903 11.2307ZM 14.3145 11.2307C 14.3145 13.697 16.3213 15.7036 18.7874 15.7036C 21.2542 15.7036 23.261 13.697 23.261 11.2307C 23.261 8.76343 21.2542 6.75708 18.7874 6.75708C 16.3213 6.75708 14.3145 8.76343 14.3145 11.2307ZM 16.459 23.2715L 16.459 34.6155C 16.459 34.7561 17.8931 34.7603 17.8931 34.6213L 17.8931 22.6189C 17.8931 22.2583 17.5723 21.9661 17.1758 21.9661L 9.66431 21.9661C 9.26758 21.9661 8.94653 22.2583 8.94653 22.6189L 8.94653 34.6299C 8.94653 34.7659 10.3816 34.8198 10.3816 34.7109L 10.3816 23.2715L 16.459 23.2715ZM 28.0889 30.3684L 22.0115 30.3684L 22.0115 23.405L 28.0889 23.405L 28.0889 30.3684ZM 21.2942 31.8071L 28.8062 31.8071C 29.2024 31.8071 29.5234 31.4851 29.5234 31.0876L 29.5234 22.6858C 29.5234 22.2886 29.2024 21.9661 28.8062 21.9661L 21.2942 21.9661C 20.8975 21.9661 20.5769 22.2886 20.5769 22.6858L 20.5769 31.0876C 20.5769 31.4851 20.8975 31.8071 21.2942 31.8071ZM 14.314 30.0178C 14.8083 30.0178 15.209 29.6174 15.209 29.123C 15.209 28.6299 14.8083 28.2285 14.314 28.2285C 13.8203 28.2285 13.4197 28.6299 13.4197 29.123C 13.4197 29.6174 13.8203 30.0178 14.314 30.0178Z"/>
</defs>
</svg>
