<svg width="93" height="93" viewBox="0 0 93 93" version="1.1" xmlns="http://www.w3.org/2000/svg" xmlns:xlink="http://www.w3.org/1999/xlink">
<title>&#216;&#167;&#217;&#132;&#216;&#167;&#217;&#138;&#217;&#130;&#217;&#136;&#217;&#134;</title>
<desc>Created using Figma</desc>
<g id="Canvas" transform="translate(-3408 -1085)">
<g id="&#216;&#167;&#217;&#132;&#216;&#167;&#217;&#138;&#217;&#130;&#217;&#136;&#217;&#134;">
<g id="&#216;&#167;&#217;&#138;&#217;&#130;&#217;&#136;&#217;&#134;">
<g id="Polygon Copy 5">
<use xlink:href="#path0_fill" transform="translate(3406.33 1083.33)" fill="#F1FEFF"/>
</g>
<g id="Icons / Compare">
<g id="Shape">
<use xlink:href="#path1_fill" transform="translate(3431 1105)" fill="url(#paint1_linear)"/>
</g>
<mask id="mask0_outline" mask-type="alpha">
<g id="Shape">
<use xlink:href="#path1_fill" transform="translate(3431 1105)" fill="#FFFFFF"/>
</g>
</mask>
<g id="Colors /  Primary" mask="url(#mask0_outline)">
<g id="Rectangle">
<use xlink:href="#path2_fill" transform="translate(3397 1080)" fill="#54D0DD"/>
</g>
</g>
</g>
</g>
</g>
</g>
<defs>
<linearGradient id="paint1_linear" x1="0" y1="0" x2="1" y2="0" gradientUnits="userSpaceOnUse" gradientTransform="matrix(0 54.2523 -47.9924 0 23 -1)">
<stop offset="0" stop-color="#1A6DFF"/>
<stop offset="1" stop-color="#C822FF"/>
</linearGradient>
<path id="path0_fill" fill-rule="evenodd" d="M 33.5682 7.52335C 41.3787 -0.287133 54.042 -0.287134 61.8525 7.52335L 87.8974 33.5682C 95.7078 41.3787 95.7078 54.042 87.8974 61.8525L 61.8525 87.8974C 54.042 95.7078 41.3787 95.7078 33.5682 87.8974L 7.52335 61.8525C -0.287133 54.042 -0.287134 41.3787 7.52335 33.5682L 33.5682 7.52335Z"/>
<path id="path1_fill" fill-rule="evenodd" d="M 43 6L 41.8159 6C 41.4021 4.83899 40.302 4 39 4L 27.8989 4C 27.4341 1.72095 25.4141 0 23 0C 20.5859 0 18.5659 1.72095 18.1011 4L 7 4C 5.698 4 4.5979 4.83899 4.18408 6L 3 6C 1.34595 6 0 7.34595 0 9L 0 47C 0 48.6541 1.34595 50 3 50L 4.18408 50C 4.5979 51.161 5.698 52 7 52L 39 52C 40.302 52 41.4021 51.161 41.8159 50L 43 50C 44.6541 50 46 48.6541 46 47L 46 9C 46 7.34595 44.6541 6 43 6ZM 20 5C 20 3.34595 21.3459 2 23 2C 24.6541 2 26 3.34595 26 5L 26 8L 20 8L 20 5ZM 2 9L 2 47C 2 47.551 2.448 48 3 48L 4 48L 4 8L 3 8C 2.448 8 2 8.44897 2 9ZM 40 49C 40 49.551 39.552 50 39 50L 7 50C 6.448 50 6 49.551 6 49L 6 7C 6 6.44897 6.448 6 7 6L 18 6L 18 10L 28 10L 28 6L 39 6C 39.552 6 40 6.44897 40 7L 40 49ZM 43 48C 43.552 48 44 47.551 44 47L 44 9C 44 8.44897 43.552 8 43 8L 42 8L 42 48L 43 48ZM 28 13L 38 13L 38 15L 28 15L 28 13ZM 38 17L 28 17L 28 19L 38 19L 38 17ZM 28 21L 36 21L 36 23L 28 23L 28 21ZM 34 25L 28 25L 28 27L 34 27L 34 25ZM 10 34L 17 34L 17 36L 10 36L 10 34ZM 17 38L 10 38L 10 40L 17 40L 17 38ZM 10 42L 17 42L 17 44L 10 44L 10 42ZM 28 34L 19 34L 19 36L 28 36L 28 34ZM 19 38L 28 38L 28 40L 19 40L 19 38ZM 28 42L 19 42L 19 44L 28 44L 28 42ZM 24 28C 24 25.837 22.988 23.8051 21.3101 22.489C 21.7371 21.7531 22 20.91 22 20L 22 18C 22 15.243 19.7571 13 17 13C 14.2429 13 12 15.243 12 18L 12 20C 12 20.91 12.2629 21.7531 12.689 22.489C 11.012 23.8051 10 25.838 10 28L 10 30L 24 30L 24 28ZM 17 15C 15.3459 15 14 16.3459 14 18L 14 20C 14 21.6541 15.3459 23 17 23C 18.6541 23 20 21.6541 20 20L 20 18C 20 16.3459 18.6541 15 17 15ZM 12 28C 12 26.4149 12.7629 24.928 14.02 23.991C 14.855 24.616 15.8789 25 17 25C 18.1211 25 19.146 24.616 19.98 23.991C 21.2371 24.928 22 26.4139 22 28L 12 28ZM 30 43C 30 43.552 30.448 44 31 44L 37 44C 37.552 44 38 43.552 38 43L 38 35C 38 34.448 37.552 34 37 34L 31 34C 30.448 34 30 34.448 30 35L 30 43Z"/>
<path id="path2_fill" fill-rule="evenodd" d="M 0 0L 114 0L 114 102L 0 102L 0 0Z"/>
</defs>
</svg>
