<svg width="126" height="55" viewBox="0 0 126 55" version="1.1" xmlns="http://www.w3.org/2000/svg" xmlns:xlink="http://www.w3.org/1999/xlink">
<title>Shape</title>
<desc>Created using Figma</desc>
<g id="Canvas" transform="translate(-27141 -1854)">
<g id="Shape">
<use xlink:href="#path0_fill" transform="translate(27141 1854)" fill="#54D0DD"/>
</g>
</g>
<defs>
<path id="path0_fill" fill-rule="evenodd" d="M 83.4434 13.0032C 83.4102 16.9307 80.5 20.6556 76.4688 20.9984C 76.3477 21.0179 44.4707 21.0278 44.4707 21.0278C 42.0645 21.0278 42.0645 17.4187 44.4707 17.4187L 75.8574 17.4121C 77.8887 17.4121 79.8047 15.4729 79.8281 12.9934L 79.8281 3.61401L 56.4199 3.61401C 54.041 3.65479 51.9043 4.62109 50.3301 6.19958L 35.9688 20.4597C 35.8945 20.5299 35.8242 20.5903 35.748 20.6475C 35.457 20.8842 35.0684 21.0228 34.584 21.0228L 6.13281 21.0228C 4.73633 21.0228 3.60352 22.1541 3.60352 23.5514L 3.69336 28.2101L 84.5195 28.2101C 85.6152 28.2639 86.6367 29.1536 86.252 30.5051L 83.498 40.2828C 83.3164 40.9945 82.7324 41.587 81.7539 41.587L 37.8008 41.587C 35.3965 41.587 35.3965 37.9812 37.8008 37.9812L 65.1309 37.9812L 66.8516 31.8257L 28.3105 31.8224C 30.918 34.2611 32.543 37.7396 32.543 41.587C 32.543 48.9897 26.543 54.9869 19.1465 54.9869C 11.748 54.9869 5.75 48.9897 5.75 41.587C 5.75 37.7332 7.37891 34.2611 9.98438 31.8224L 2.18164 31.8224C 1.11914 31.8698 0.140625 31.2903 0.117188 30.0464L 0 23.566C 0 20.1741 2.75195 17.4105 6.14453 17.4105L 33.9141 17.4105L 47.7812 3.64661C 49.9922 1.42175 53.0371 0.0473633 56.3848 0L 94.6016 0C 97.9629 0.0473633 100.988 1.41528 103.191 3.6123L 117.113 17.4448L 118.205 17.4513C 122.061 17.5688 125.162 20.734 125.162 24.6222C 125.162 28.5724 121.957 31.78 117.99 31.78L 112.619 31.8062C 115.236 34.2513 116.871 37.7365 116.871 41.6001C 116.871 49.0028 110.869 55 103.475 55C 96.0781 55 90.0781 49.0028 90.0781 41.6001C 90.0781 34.2073 96.0781 28.2101 103.475 28.2101L 117.99 28.197C 119.963 28.197 121.562 26.5973 121.562 24.6255C 121.562 22.6503 119.963 21.054 117.99 21.054L 94.1016 21.054C 90.0039 20.7699 87.0391 17.0171 87.0098 13.049L 87.0098 7.28833C 87.0098 4.88074 90.6191 4.88074 90.6191 7.28833L 90.6191 13.0244C 90.6348 15.5105 92.5547 17.453 94.5918 17.453L 111.977 17.4431L 100.631 6.18335C 99.084 4.63098 96.9453 3.65808 94.5625 3.61731L 83.4434 3.61401L 83.4434 13.0032ZM 18.6172 31.8306C 13.459 32.1047 9.36133 36.3733 9.36133 41.5984C 9.36133 47.0048 13.7422 51.386 19.1465 51.386C 24.5527 51.386 28.9336 47.0048 28.9336 41.5984C 28.9336 36.3766 24.832 32.1047 19.6738 31.8306L 18.6172 31.8306ZM 103.477 31.8142C 98.0703 31.8142 93.6914 36.1987 93.6914 41.5984C 93.6914 47.0048 98.0723 51.386 103.477 51.386C 108.879 51.386 113.264 47.0048 113.264 41.5984C 113.264 36.197 108.879 31.8142 103.477 31.8142ZM 80.3926 37.9895L 68.8789 37.9895L 70.6016 31.8323L 82.1289 31.8356L 80.3926 37.9895ZM 17.3867 41.5985C 17.3867 40.6256 18.1738 39.8389 19.1465 39.8389C 20.1152 39.8389 20.9043 40.6289 20.9062 41.5985C 20.9062 42.5747 20.1191 43.3615 19.1465 43.3615C 18.1738 43.3615 17.3867 42.5747 17.3867 41.5985ZM 19.1445 36.2297C 22.1133 36.2297 24.5176 38.6375 24.5176 41.5985C 24.5176 44.566 22.1133 46.9738 19.1445 46.9738C 16.1816 46.9738 13.7734 44.566 13.7734 41.5985C 13.7715 38.6357 16.1777 36.2297 19.1445 36.2297ZM 103.475 36.2297C 106.439 36.2297 108.848 38.6375 108.848 41.5985C 108.848 44.566 106.439 46.9738 103.475 46.9738C 100.514 46.9738 98.1035 44.566 98.1035 41.5985C 98.1035 38.6357 100.514 36.2297 103.475 36.2297ZM 101.717 41.5985C 101.717 40.6256 102.508 39.8389 103.477 39.8389C 104.447 39.8389 105.24 40.6289 105.24 41.5985C 105.24 42.5747 104.449 43.3615 103.477 43.3615C 102.508 43.3615 101.717 42.5747 101.717 41.5985Z"/>
</defs>
</svg>
