<svg width="51" height="64" viewBox="0 0 51 64" version="1.1" xmlns="http://www.w3.org/2000/svg" xmlns:xlink="http://www.w3.org/1999/xlink">
<title> Protection</title>
<desc>Created using Figma</desc>
<g id="Canvas" transform="translate(-2459 -368)">
<g id="Icons / Protection">
<g id="Shape">
<use xlink:href="#path0_fill" transform="translate(2459 368)" fill="url(#paint0_linear)"/>
</g>
<mask id="mask0_outline" mask-type="alpha">
<g id="Shape">
<use xlink:href="#path0_fill" transform="translate(2459 368)" fill="#FFFFFF"/>
</g>
</mask>
<g id="Colors / Gradients / Primary 2" mask="url(#mask0_outline)">
<g id="Rectangle">
<use xlink:href="#path1_fill" transform="translate(2428 349)" fill="url(#paint2_linear)"/>
</g>
</g>
</g>
</g>
<defs>
<linearGradient id="paint0_linear" x1="0" y1="0" x2="1" y2="0" gradientUnits="userSpaceOnUse" gradientTransform="matrix(51 64 -51 64 0 0)">
<stop offset="0" stop-color="#4FC4D1"/>
<stop offset="1" stop-color="#4F90D1"/>
</linearGradient>
<linearGradient id="paint2_linear" x1="0" y1="0" x2="1" y2="0" gradientUnits="userSpaceOnUse" gradientTransform="matrix(114 0 0 102 0 51)">
<stop offset="0" stop-color="#5499DD"/>
<stop offset="1" stop-color="#618AFC"/>
</linearGradient>
<path id="path0_fill" fill-rule="evenodd" d="M 50.9121 3.94138C 50.574 3.06674 49.2751 2.87476 48.6792 3.504C 45.9817 5.86401 42.5222 7.16 38.9229 7.16C 33.9629 7.16 29.3625 4.70663 26.6223 0.597382C 26.3728 0.223999 25.9541 0 25.5032 0C 25.0549 0 24.6335 0.223999 24.3865 0.594635C 21.6382 4.70401 17.0378 7.15726 12.0779 7.15726C 8.43848 7.15726 4.94385 5.83188 2.23853 3.42389C 1.84399 3.07187 1.28027 2.98651 0.794434 3.19989C 0.311279 3.41327 0 3.8905 0 4.41589L 0 33.3306C 0 49.9812 23.8337 63.2746 24.8481 63.832C 25.0496 63.944 25.2749 64 25.4978 64C 25.7205 64 25.946 63.944 26.1472 63.8374C 27.1619 63.28 50.9956 49.984 50.9956 33.3359L 50.9956 4.53589C 51.0117 4.336 50.9846 4.13339 50.9121 3.94138ZM 48.3115 33.3334C 48.3115 46.9788 29.2849 58.8908 25.4978 61.1255C 21.708 58.8907 2.68408 46.9921 2.68408 33.3334L 2.68408 7.10138C 5.47266 8.87201 8.7229 9.82675 12.0781 9.82675C 17.3091 9.82675 22.2019 7.51474 25.4978 3.56537C 28.7991 7.51736 33.6921 9.82675 38.9231 9.82675C 42.2754 9.82675 45.5256 8.87213 48.3115 7.10413L 48.3115 33.3334ZM 33.6838 24.3803C 34.2131 23.8732 35.0737 23.8732 35.603 24.3803C 36.1323 24.8874 36.1323 25.7117 35.603 26.2188L 24.7341 36.6203C 24.4817 36.8622 24.137 37 23.7759 37C 23.415 37 23.0701 36.8622 22.8149 36.6203L 17.397 31.4195C 16.8677 30.9124 16.8677 30.0855 17.397 29.581C 17.9263 29.0739 18.7869 29.0739 19.3162 29.581L 23.7788 33.8613L 33.6838 24.3803Z"/>
<path id="path1_fill" fill-rule="evenodd" d="M 0 0L 114 0L 114 102L 0 102L 0 0Z"/>
</defs>
</svg>
